<svg width="34" height="34" viewBox="0 0 34 34" fill="none" xmlns="http://www.w3.org/2000/svg">
<g clip-path="url(#clip0_817_110)">
<path d="M28 0H6C2.68629 0 0 2.68629 0 6V28C0 31.3137 2.68629 34 6 34H28C31.3137 34 34 31.3137 34 28V6C34 2.68629 31.3137 0 28 0Z" fill="#4a4a4a"/>
<mask id="mask0_817_110" style="mask-type:alpha" maskUnits="userSpaceOnUse" x="5" y="5" width="24" height="24">
<path d="M5 29L29 29L29 5L5 5L5 29Z" fill="#4a4a4a"/>
</mask>
<g mask="url(#mask0_817_110)">
<path d="M23.435 22.435L10.7071 9.70711C10.3166 9.31658 9.68342 9.31658 9.29289 9.70711C8.90237 10.0976 8.90237 10.7308 9.29289 11.1213L22.0208 23.8492C22.4113 24.2398 23.0445 24.2398 23.435 23.8492C23.8256 23.4587 23.8256 22.8256 23.435 22.435Z" fill="white"/>
<path d="M9.56497 22.435L22.2929 9.70711C22.6834 9.31658 23.3166 9.31658 23.7071 9.70711C24.0976 10.0976 24.0976 10.7308 23.7071 11.1213L10.9792 23.8492C10.5887 24.2398 9.95549 24.2398 9.56497 23.8492C9.17444 23.4587 9.17444 22.8256 9.56497 22.435Z" fill="white"/>
</g>
</g>
<defs>
<clipPath id="clip0_817_110">
<rect width="34" height="34" fill="white"/>
</clipPath>
</defs>
</svg>
