<svg width="28" height="28" viewBox="0 0 28 28" fill="none" xmlns="http://www.w3.org/2000/svg">
<g clip-path="url(#clip0_882_44)">
<path d="M0 6C0 2.68629 2.68629 0 6 0H22C25.3137 0 28 2.68629 28 6V22C28 25.3137 25.3137 28 22 28H6C2.68629 28 0 25.3137 0 22V6Z" fill="#6633FF"/>
<mask id="mask0_882_44" style="mask-type:alpha" maskUnits="userSpaceOnUse" x="4" y="4" width="20" height="20">
<path d="M24 4H4V24H24V4Z" fill="#D9D9D9"/>
</mask>
<g mask="url(#mask0_882_44)">
<path d="M7.33301 19.8334V18.1668H8.99967V12.3334C8.99967 11.1806 9.3469 10.1562 10.0413 9.26008C10.7358 8.36452 11.6386 7.77786 12.7497 7.50008V6.91675C12.7497 6.56952 12.8713 6.27452 13.1147 6.03175C13.3575 5.78841 13.6525 5.66675 13.9997 5.66675C14.3469 5.66675 14.6419 5.78841 14.8847 6.03175C15.128 6.27452 15.2497 6.56952 15.2497 6.91675V7.50008C16.3608 7.77786 17.2636 8.36452 17.958 9.26008C18.6525 10.1562 18.9997 11.1806 18.9997 12.3334V18.1668H20.6663V19.8334H7.33301ZM13.9997 22.3334C13.5413 22.3334 13.1491 22.1704 12.823 21.8443C12.4963 21.5176 12.333 21.1251 12.333 20.6668H15.6663C15.6663 21.1251 15.5033 21.5176 15.1772 21.8443C14.8505 22.1704 14.458 22.3334 13.9997 22.3334Z" fill="white"/>
</g>
</g>
<defs>
<clipPath id="clip0_882_44">
<rect width="28" height="28" fill="white"/>
</clipPath>
</defs>
</svg>
