<svg width="34" height="34" viewBox="0 0 34 34" fill="none" xmlns="http://www.w3.org/2000/svg">
<g clip-path="url(#clip0_817_127)">
<path d="M28 0H6C2.68629 0 0 2.68629 0 6V28C0 31.3137 2.68629 34 6 34H28C31.3137 34 34 31.3137 34 28V6C34 2.68629 31.3137 0 28 0Z" fill="#4a4a4a"/>
<mask id="mask0_817_127" style="mask-type:alpha" maskUnits="userSpaceOnUse" x="5" y="5" width="24" height="24">
<path d="M29 5H5V29H29V5Z" fill="#4a4a4a"/>
</mask>
<g mask="url(#mask0_817_127)">
<path d="M9 24V22H11V15C11 13.6167 11.4167 12.3873 12.25 11.312C13.0833 10.2373 14.1667 9.53333 15.5 9.2V8.5C15.5 8.08333 15.646 7.72933 15.938 7.438C16.2293 7.146 16.5833 7 17 7C17.4167 7 17.7707 7.146 18.062 7.438C18.354 7.72933 18.5 8.08333 18.5 8.5V9.2C19.8333 9.53333 20.9167 10.2373 21.75 11.312C22.5833 12.3873 23 13.6167 23 15V22H25V24H9ZM17 27C16.45 27 15.9793 26.8043 15.588 26.413C15.196 26.021 15 25.55 15 25H19C19 25.55 18.8043 26.021 18.413 26.413C18.021 26.8043 17.55 27 17 27Z" fill="white"/>
</g>
</g>
<defs>
<clipPath id="clip0_817_127">
<rect width="34" height="34" fill="#4a4a4a"/>
</clipPath>
</defs>
</svg>
