<svg width="62" height="20" viewBox="0 0 62 20" fill="none" xmlns="http://www.w3.org/2000/svg"><path d="M5.68 8.868c-.738-.393-1.118-.724-1.118-1.18 0-.58.527-.951 1.35-.951.958 0 1.813.393 1.813.393L8.4 5.102s-.62-.476-2.446-.476c-2.54 0-4.301 1.427-4.301 3.435 0 1.138.822 2.007 1.919 2.627.885.496 1.202.848 1.202 1.365 0 .538-.443.973-1.265.973-1.225 0-2.382-.621-2.382-.621L.41 14.433s1.069.704 2.867.704c2.615 0 4.491-1.263 4.491-3.539 0-1.22-.95-2.089-2.088-2.73Zm10.415-4.263c-1.286 0-2.298.6-3.077 1.51l-.043-.02L14.092.364h-2.91L8.359 14.95h2.91l.97-4.987c.379-1.883 1.37-3.04 2.297-3.04.654 0 .907.434.907 1.055 0 .393-.042.869-.126 1.262l-1.096 5.71h2.91l1.138-5.897c.126-.62.21-1.365.21-1.862 0-1.614-.865-2.587-2.383-2.587Zm8.961 0c-3.5 0-5.82 3.104-5.82 6.56 0 2.213 1.392 3.992 4.007 3.992 3.436 0 5.756-3.02 5.756-6.559 0-2.048-1.224-3.993-3.943-3.993Zm-1.434 8.36c-.99 0-1.413-.828-1.413-1.862 0-1.635.865-4.304 2.446-4.304 1.033 0 1.37.87 1.37 1.718 0 1.758-.863 4.448-2.403 4.448Zm12.819-8.36c-1.964 0-3.078 1.697-3.078 1.697h-.042l.169-1.53h-2.573a59.928 59.928 0 0 1-.59 3.785l-2.024 10.45h2.91l.8-4.222h.064s.597.372 1.708.372c3.415 0 5.65-3.434 5.65-6.91 0-1.924-.865-3.642-2.994-3.642Zm-2.783 8.4c-.755 0-1.202-.413-1.202-.413l.485-2.67c.337-1.778 1.286-2.958 2.298-2.958.886 0 1.16.807 1.16 1.573 0 1.841-1.118 4.469-2.741 4.469ZM43.588.508c-.927 0-1.665.725-1.665 1.656 0 .848.548 1.427 1.37 1.427h.042c.907 0 1.687-.6 1.708-1.655 0-.827-.57-1.428-1.455-1.428ZM39.52 14.95h2.909L44.41 4.834h-2.93l-1.962 10.118ZM51.811 4.813h-2.024l.105-.477c.17-.972.76-1.841 1.73-1.841.517 0 .926.145.926.145l.57-2.235s-.506-.248-1.582-.248c-1.033 0-2.065.29-2.846.952-.99.827-1.455 2.027-1.686 3.227l-.084.477h-1.35l-.422 2.152h1.35l-1.539 7.986h2.91l1.539-7.986h2.003l.4-2.152Zm6.999.02s-1.818 4.497-2.635 6.952h-.042c-.056-.79-.717-6.952-.717-6.952h-3.057l1.75 9.29c.042.207.021.331-.063.476-.338.641-.907 1.262-1.582 1.718-.548.393-1.16.64-1.644.807l.801 2.42c.59-.123 1.813-.6 2.846-1.551 1.329-1.22 2.551-3.104 3.816-5.67l3.563-7.49h-3.035Z" fill="#fff"/></svg>