<svg width="92" height="91" viewBox="0 0 92 91" fill="none" xmlns="http://www.w3.org/2000/svg">
<path d="M91.3119 45.4777C91.3119 70.5944 70.9508 90.9554 45.8342 90.9554C20.7175 90.9554 0.356445 70.5944 0.356445 45.4777C0.356445 20.3611 20.7175 0 45.8342 0C70.9508 0 91.3119 20.3611 91.3119 45.4777ZM10.929 45.4777C10.929 64.7553 26.5566 80.3829 45.8342 80.3829C65.1117 80.3829 80.7393 64.7553 80.7393 45.4777C80.7393 26.2001 65.1117 10.5725 45.8342 10.5725C26.5566 10.5725 10.929 26.2001 10.929 45.4777Z" fill="#3F3CC7" fill-opacity="0.03"/>
<path d="M32.8137 22.9403C32.0589 21.5295 32.5865 19.7592 34.0652 19.148C39.3746 16.9535 45.2171 16.3758 50.8535 17.4882C52.4232 17.798 53.2872 19.4307 52.8234 20.962V20.962C52.3595 22.4933 50.7427 23.3394 49.1658 23.0683C45.0141 22.3547 40.7444 22.7768 36.8129 24.2896C35.3196 24.8642 33.5684 24.3511 32.8137 22.9403V22.9403Z" fill="#3F3CC7" fill-opacity="0.03"/>
<circle cx="28.2703" cy="26.6594" r="3.45003" fill="#3F3CC7" fill-opacity="0.03"/>
</svg>
