<svg width="24" height="19" viewBox="0 0 24 19" fill="none" xmlns="http://www.w3.org/2000/svg">
<g clip-path="url(#clip0_862_65)">
<path d="M12 14.1998C13.7673 14.1998 15.2 12.7671 15.2 10.9998C15.2 9.23249 13.7673 7.7998 12 7.7998C10.2327 7.7998 8.80005 9.23249 8.80005 10.9998C8.80005 12.7671 10.2327 14.1998 12 14.1998Z" fill="#6633FF"/>
<path d="M10.1227 0C9.42542 0 8.77846 0.363186 8.41533 0.958481L7.46234 2.52076C7.28077 2.81841 6.95729 3 6.60863 3H2C0.9 3 0 3.9 0 5V17C0 18.1 0.9 19 2 19H22C23.1 19 24 18.1 24 17V5C24 3.9 23.1 3 22 3H17.3914C17.0427 3 16.7192 2.81841 16.5377 2.52076L15.5847 0.958482C15.2215 0.363187 14.5746 0 13.8773 0H10.1227ZM12 16C9.24 16 7 13.76 7 11C7 8.24 9.24 6 12 6C14.76 6 17 8.24 17 11C17 13.76 14.76 16 12 16Z" fill="#6633FF"/>
</g>
<defs>
<clipPath id="clip0_862_65">
<rect width="24" height="19" fill="white"/>
</clipPath>
</defs>
</svg>
