<svg width="26" height="25" viewBox="0 0 26 25" fill="none" xmlns="http://www.w3.org/2000/svg">
<path d="M26 7.83732C26.0001 7.60026 25.9358 7.36767 25.8141 7.16462L22.2924 1.26703C22.0604 0.881491 21.7336 0.562423 21.3433 0.340521C20.9531 0.11862 20.5126 0.00135263 20.0642 0H5.9358C5.0284 0 4.1743 0.485914 3.7076 1.26834L0.1859 7.16462C0.0641545 7.36767 -0.000122059 7.60026 1.7401e-07 7.83732C1.7401e-07 9.15007 0.5018 10.3374 1.3 11.257V23.512C1.3 23.8584 1.43696 24.1906 1.68076 24.4356C1.92456 24.6806 2.25522 24.8182 2.6 24.8182H13C13.3448 24.8182 13.6754 24.6806 13.9192 24.4356C14.163 24.1906 14.3 23.8584 14.3 23.512V16.9809H19.5V23.512C19.5 23.8584 19.637 24.1906 19.8808 24.4356C20.1246 24.6806 20.4552 24.8182 20.8 24.8182H23.4C23.7448 24.8182 24.0754 24.6806 24.3192 24.4356C24.563 24.1906 24.7 23.8584 24.7 23.512V11.257C25.4982 10.3374 26 9.15007 26 7.83732ZM23.3792 8.16518C23.2992 8.79596 22.9932 9.37586 22.5185 9.79635C22.0438 10.2169 21.4329 10.4491 20.8 10.4498C19.3661 10.4498 18.2 9.27808 18.2 7.83732C18.2 7.7485 18.1675 7.67012 18.1493 7.58653L18.1753 7.5813L17.186 2.61244H20.0642L23.3792 8.16518ZM10.4091 7.92222L11.4647 2.61244H14.534L15.5909 7.92222C15.5454 9.3238 14.404 10.4498 13 10.4498C11.596 10.4498 10.4546 9.3238 10.4091 7.92222ZM5.9358 2.61244H8.814L7.826 7.5813L7.852 7.58653C7.8325 7.67012 7.8 7.7485 7.8 7.83732C7.8 9.27808 6.6339 10.4498 5.2 10.4498C4.56715 10.4491 3.9562 10.2169 3.48148 9.79635C3.00675 9.37586 2.70078 8.79596 2.6208 8.16518L5.9358 2.61244ZM10.4 18.2871H5.2V14.3684H10.4V18.2871Z" fill="white"/>
</svg>
