<svg width="32" height="30" viewBox="0 0 32 30" fill="none" xmlns="http://www.w3.org/2000/svg">
<path d="M31.6854 17.7907C31.2521 17.0215 30.4339 16.5437 29.5501 16.5437C29.1326 16.5437 28.718 16.6528 28.3514 16.8593L21.2167 20.8773C21.1236 20.9297 21.0564 21.0184 21.0308 21.1222C20.9064 21.6301 20.6135 22.3394 19.9253 22.8332C19.1635 23.3799 18.1331 23.4937 16.8775 23.1717C16.8699 23.1699 16.8625 23.1677 16.8558 23.1656L12.74 21.8877C12.4912 21.8104 12.3516 21.5451 12.4289 21.2963C12.4907 21.0973 12.6721 20.9635 12.8801 20.9635C12.9274 20.9635 12.9747 20.9708 13.0205 20.9849L17.1149 22.2563C17.1215 22.2582 17.1282 22.2601 17.1349 22.2619C18.1004 22.5056 18.8545 22.4378 19.374 22.0652C20.0303 21.5943 20.1459 20.7665 20.1595 20.6449C20.1601 20.641 20.1605 20.6372 20.1607 20.6332C20.161 20.6312 20.1611 20.6301 20.1612 20.6299C20.1613 20.6286 20.1613 20.6273 20.1614 20.6261C20.1615 20.6252 20.1615 20.6244 20.1616 20.6236C20.2397 19.6028 19.581 18.6603 18.5941 18.3816L18.576 18.3761C18.5459 18.3663 15.517 17.377 13.5872 16.8263C13.3728 16.7652 12.782 16.623 11.9275 16.623C10.7325 16.623 8.94976 16.9062 7.23981 18.2579L0.143423 23.9982C-0.0189097 24.1294 -0.0476981 24.3658 0.0782834 24.5323L3.92064 29.6076C3.98294 29.6898 4.07541 29.7438 4.17758 29.7575C4.19468 29.7598 4.21179 29.7609 4.22897 29.7609C4.31379 29.7609 4.39689 29.733 4.46487 29.6806L9.41407 25.8698C9.52527 25.7843 9.67437 25.752 9.811 25.7843L17.8047 27.6733C18.3975 27.8134 19.0382 27.723 19.5684 27.4241L30.7538 21.1247C31.9297 20.4622 32.3476 18.9667 31.6854 17.7907Z" fill="white"/>
<path d="M27.2401 0.0217285H12.6311C12.1565 0.0217285 11.7717 0.406462 11.7717 0.881085V4.7915C11.7717 5.26612 12.1565 5.65085 12.6311 5.65085H12.9521V13.9542C12.9521 14.4288 13.3368 14.8136 13.8114 14.8136H26.0595C26.5341 14.8136 26.9188 14.4288 26.9188 13.9542V5.65077H27.24C27.7146 5.65077 28.0994 5.26603 28.0994 4.79141V0.881085C28.0995 0.406462 27.7147 0.0217285 27.2401 0.0217285ZM21.7433 7.69251H18.1278C17.7487 7.69251 17.4403 7.38409 17.4403 7.00503C17.4403 6.62596 17.7487 6.31754 18.1278 6.31754H21.7433C22.1223 6.31754 22.4307 6.62596 22.4307 7.00503C22.4307 7.38409 22.1223 7.69251 21.7433 7.69251ZM26.3808 3.93206H26.0596H13.8114H13.4904V1.74044H26.3808V3.93206Z" fill="white"/>
</svg>
