<svg width="134" height="139" viewBox="0 0 134 139" fill="none" xmlns="http://www.w3.org/2000/svg">
<path d="M34.5219 24.8469H15.8782V43.4907H34.5219V24.8469Z" fill="white"/>
<path d="M0.5 67.9532V83.5688H13.8594V138.675H119.606V83.5094H133.5V67.8938H0.5V67.9532Z" fill="white"/>
<path d="M66.9407 24.6094C73.7688 24.6094 79.1125 19.1469 79.1125 12.4375C79.1125 5.60938 73.65 0.265625 66.9407 0.265625C60.1125 0.265625 54.7688 5.72812 54.7688 12.4375C54.7688 19.2062 60.1719 24.6094 66.9407 24.6094Z" fill="white"/>
<path d="M109.928 24.8469L100.666 43.4907H119.309L109.928 24.8469Z" fill="white"/>
<path d="M16.5906 60.0563H38.5594C40.2813 60.0563 42.4188 59.4625 43.6656 57.5625L52.0969 45.6282V64.925H82.2V45.6282L90.6313 57.5625C91.8781 59.4032 93.9563 60.0563 95.7375 60.0563H117.706C124.653 60.0563 125.128 49.25 117.469 49.25H98.35L87.3656 33.2188C84.1594 28.6469 80.4188 26.6282 75.3125 26.6282H59.0438C53.8188 26.6282 50.1375 28.7063 46.9906 33.2188L35.7094 49.1907H16.7094C9.05001 49.1907 9.40626 60.0563 16.5906 60.0563Z" fill="white"/>
</svg>
